<svg xmlns="http://www.w3.org/2000/svg" xmlns:xlink="http://www.w3.org/1999/xlink" width="1587" zoomAndPan="magnify" viewBox="0 0 1190.25 425.249985" height="567" preserveAspectRatio="xMidYMid meet" version="1.0"><defs><clipPath id="aa55ed908b"><path d="M 4 56 L 1184.972656 56 L 1184.972656 368 L 4 368 Z M 4 56 " clip-rule="nonzero"/></clipPath><clipPath id="63f287a2f1"><path d="M 13.699219 304.917969 C 78.941406 230.527344 89.816406 217.824219 110.269531 199.414062 C 143 169.804688 213.085938 111.777344 245.707031 91.96875 C 262.070312 82.0625 271.546875 78.617188 285.21875 74.203125 C 298.890625 69.683594 313.640625 66.777344 327.742188 64.945312 C 341.523438 63.007812 354.875 63.976562 368.871094 62.683594 C 383.617188 61.285156 398.800781 56.980469 413.980469 56.546875 C 429.265625 56.011719 444.769531 56.761719 460.378906 59.886719 C 476.960938 63.222656 494.9375 69.574219 510.65625 76.679688 C 525.730469 83.464844 538.542969 89.816406 552.96875 101.441406 C 572.5625 117.375 595.816406 152.042969 613.796875 168.191406 C 625.960938 179.066406 635.757812 184.449219 647.0625 192.308594 C 658.582031 200.273438 669.886719 209.53125 682.265625 215.667969 C 694.324219 221.589844 706.488281 226.21875 720.164062 228.589844 C 735.449219 231.171875 749.878906 229.125 769.792969 228.804688 C 799.832031 228.480469 844.292969 228.695312 882.730469 225.574219 C 923.316406 222.453125 976.175781 214.59375 1007.292969 209.425781 C 1026.132812 206.304688 1035.175781 204.363281 1052.402344 200.273438 C 1076.085938 194.785156 1120.117188 180.570312 1135.945312 178.097656 C 1142.1875 177.234375 1144.878906 177.019531 1149.078125 177.558594 C 1153.386719 178.097656 1157.800781 179.386719 1161.78125 181.21875 C 1165.660156 183.046875 1169.425781 185.738281 1172.550781 188.753906 C 1175.671875 191.769531 1178.363281 195.429688 1180.40625 199.304688 C 1182.347656 203.074219 1183.851562 207.488281 1184.5 211.792969 C 1185.144531 216.101562 1185.039062 220.621094 1184.285156 224.929688 C 1183.53125 229.125 1182.023438 233.539062 1179.976562 237.308594 C 1177.933594 241.078125 1175.132812 244.738281 1171.902344 247.75 C 1168.78125 250.660156 1164.90625 253.242188 1160.921875 254.964844 C 1157.046875 256.6875 1152.523438 257.871094 1148.21875 258.300781 C 1143.910156 258.734375 1139.390625 258.410156 1135.082031 257.441406 C 1130.882812 256.472656 1126.6875 254.75 1123.027344 252.488281 C 1119.257812 250.226562 1115.8125 247.214844 1113.011719 243.875 C 1110.320312 240.539062 1107.953125 236.554688 1106.445312 232.570312 C 1104.832031 228.480469 1103.863281 223.960938 1103.753906 219.652344 C 1103.539062 215.347656 1104.078125 210.71875 1105.261719 206.625 C 1106.445312 202.425781 1108.492188 198.335938 1110.96875 194.785156 C 1113.445312 191.230469 1116.566406 187.894531 1120.117188 185.308594 C 1123.5625 182.726562 1127.65625 180.570312 1131.746094 179.28125 C 1135.835938 177.988281 1140.464844 177.234375 1144.773438 177.234375 C 1149.078125 177.34375 1153.601562 178.097656 1157.691406 179.601562 C 1161.78125 181.003906 1165.875 183.15625 1169.210938 185.847656 C 1172.65625 188.539062 1175.777344 191.875 1178.148438 195.535156 C 1180.515625 199.089844 1182.453125 203.289062 1183.53125 207.488281 C 1184.714844 211.6875 1185.144531 216.207031 1184.820312 220.515625 C 1184.605469 224.820312 1183.53125 229.34375 1181.914062 233.324219 C 1180.191406 237.308594 1177.824219 241.292969 1174.917969 244.523438 C 1172.117188 247.859375 1168.566406 250.765625 1164.90625 252.917969 C 1161.136719 255.179688 1158.121094 256.042969 1152.632812 257.65625 C 1142.082031 260.886719 1120.441406 265.300781 1105.152344 268.421875 C 1091.15625 271.4375 1081.144531 273.484375 1064.566406 276.390625 C 1038.941406 280.804688 996.527344 286.402344 965.949219 291.675781 C 939.144531 296.199219 919.011719 301.472656 890.910156 305.566406 C 855.167969 310.625 801.445312 316.652344 768.71875 317.839844 C 746.648438 318.699219 732.003906 319.667969 713.378906 316.4375 C 693.570312 312.992188 670.746094 303.84375 653.304688 296.523438 C 638.878906 290.386719 627.46875 284.25 615.195312 276.820312 C 602.921875 269.5 591.941406 261.210938 579.667969 252.164062 C 565.777344 241.9375 548.015625 230.417969 536.386719 218.46875 C 526.484375 208.242188 521.53125 196.613281 512.917969 186.277344 C 503.765625 175.511719 494.722656 163.023438 482.773438 155.058594 C 470.390625 146.765625 454.566406 141.167969 439.386719 138.261719 C 423.882812 135.246094 407.519531 136.96875 390.832031 137.402344 C 373.285156 138.046875 353.582031 139.554688 336.464844 141.707031 C 320.746094 143.644531 307.933594 142.460938 291.894531 149.242188 C 267.992188 159.363281 235.15625 189.617188 211.902344 207.808594 C 193.0625 222.453125 177.558594 234.617188 162.054688 249.152344 C 146.875 263.363281 133.847656 277.464844 119.960938 293.722656 C 104.351562 311.917969 82.171875 344.105469 73.453125 353.796875 C 70.328125 357.242188 69.144531 358.425781 66.667969 360.257812 C 64.300781 362.085938 61.5 363.703125 58.703125 364.886719 C 55.796875 366.070312 52.78125 366.929688 49.765625 367.46875 C 46.644531 367.898438 43.523438 368.117188 40.398438 367.792969 C 37.386719 367.578125 34.261719 366.929688 31.355469 365.960938 C 28.449219 364.992188 25.542969 363.59375 22.960938 361.980469 C 20.375 360.257812 17.898438 358.316406 15.746094 356.058594 C 13.59375 353.796875 11.65625 351.320312 10.148438 348.628906 C 8.640625 345.9375 7.347656 343.03125 6.488281 340.015625 C 5.625 337.109375 5.195312 333.988281 4.980469 330.863281 C 4.871094 327.851562 5.195312 324.621094 5.839844 321.605469 C 6.378906 318.59375 7.457031 315.578125 8.746094 312.777344 C 10.039062 309.980469 13.699219 304.917969 13.699219 304.917969 " clip-rule="nonzero"/></clipPath></defs><g clip-path="url(#aa55ed908b)"><g clip-path="url(#63f287a2f1)"><path fill="#4e6e58" d="M 0.671875 52.242188 L 1189.265625 52.242188 L 1189.265625 372.207031 L 0.671875 372.207031 Z M 0.671875 52.242188 " fill-opacity="1" fill-rule="nonzero"/></g></g></svg>